<svg xmlns="http://www.w3.org/2000/svg" version="1.0" width="154.000000pt" height="198.000000pt" viewBox="0 0 154.000000 198.000000" preserveAspectRatio="xMidYMid meet">
<metadata>
Created by potrace 1.10, written by Peter Selinger 2001-2011
</metadata>
<g transform="translate(0.000000,198.000000) scale(0.100000,-0.100000)" fill="#000000" stroke="none">
<path d="M483 1953 c26 -2 68 -2 95 0 26 2 4 3 -48 3 -52 0 -74 -1 -47 -3z"/>
<path d="M700 1919 c-41 -17 -88 -57 -120 -105 -31 -44 -31 -46 -28 -154 2 -61 0 -110 -3 -110 -22 0 -11 -148 12 -174 12 -13 42 2 33 16 -9 14 -16 53 -16 86 0 24 -13 30 -21 10 -3 -8 -6 -6 -6 5 -1 9 4 17 9 17 6 0 10 44 10 113 l0 113 52 27 c30 16 54 23 56 17 11 -31 92 9 92 45 0 14 -3 13 -25 -1 -14 -9 -25 -20 -25 -24 0 -9 -28 -7 -51 4 -9 4 -20 6 -25 5 -21 -4 -35 2 -29 11 3 6 17 7 31 4 14 -4 24 -2 24 5 0 6 -7 8 -15 5 -24 -10 -17 2 13 22 23 15 25 15 13 1 -7 -9 -9 -17 -3 -17 15 0 35 28 27 40 -3 5 -1 10 4 10 6 0 11 -7 11 -16 0 -13 3 -14 15 -4 8 7 12 16 9 21 -3 5 2 9 10 9 9 0 16 -7 16 -15 0 -11 7 -14 25 -9 22 5 27 1 39 -28 14 -32 39 -50 106 -75 20 -8 26 -20 36 -79 7 -38 13 -86 13 -106 1 -30 4 -36 17 -31 17 6 34 -12 34 -36 0 -11 -4 -11 -18 2 -24 22 -34 12 -20 -19 9 -19 14 -22 26 -12 12 10 14 9 10 -7 -2 -13 -10 -19 -23 -17 -11 2 -16 -1 -10 -5 17 -13 15 -45 -2 -39 -9 4 -13 1 -11 -6 3 -7 13 -13 23 -13 24 0 45 76 38 140 -5 39 -8 45 -24 40 -17 -6 -19 0 -19 47 -1 49 -7 88 -27 163 -9 36 -75 99 -126 120 -41 17 -119 19 -157 4z m218 -79 c30 0 28 -17 -4 -23 -20 -3 -28 1 -36 18 -6 14 -16 21 -24 18 -8 -3 -14 -1 -14 4 0 21 15 22 35 3 12 -11 31 -20 43 -20z"/>
<path d="M863 1684 c-4 -1 -20 -5 -35 -8 -51 -11 -29 -23 42 -22 68 1 83 7 58 22 -12 7 -48 12 -65 8z"/>
<path d="M631 1661 c-19 -3 -36 -12 -39 -20 -4 -11 7 -13 59 -7 35 4 66 9 68 12 13 13 -44 23 -88 15z"/>
<path d="M826 1633 c-11 -3 -26 -12 -34 -20 -13 -12 -12 -15 6 -20 11 -2 22 -13 25 -24 4 -14 14 -19 39 -19 18 0 40 5 48 10 11 7 3 10 -30 11 -43 1 -44 1 -15 10 17 5 42 7 58 5 34 -7 37 16 5 38 -22 16 -63 19 -102 9z m83 -17 c10 -12 7 -14 -23 -13 -35 2 -43 7 -29 20 11 12 40 8 52 -7z"/>
<path d="M668 1607 c9 -10 4 -16 -20 -25 -30 -11 -30 -11 -13 8 10 11 14 20 8 20 -13 0 -43 -33 -43 -48 0 -15 3 -15 35 0 19 9 28 9 37 0 9 -9 7 -12 -9 -12 -12 0 -25 -4 -28 -10 -8 -13 41 -13 66 1 11 5 17 14 14 20 -4 5 1 9 9 9 9 0 16 8 16 19 0 13 -10 20 -31 25 -46 9 -53 8 -41 -7z"/>
<path d="M808 1515 c5 -11 29 -42 52 -68 32 -36 45 -45 51 -35 13 19 11 36 -2 18 -9 -12 -10 -11 -6 8 3 13 1 20 -5 16 -6 -4 -20 4 -32 17 -11 13 -32 33 -45 44 -24 20 -24 20 -13 0z"/>
<path d="M712 1491 c-8 -4 -19 -19 -25 -31 -14 -28 -37 -38 -37 -16 0 31 -15 23 -16 -9 l0 -33 30 18 c17 9 39 31 49 48 20 34 20 37 -1 23z"/>
<path d="M800 1450 c-8 -5 -30 -7 -47 -4 -43 8 -44 -12 -3 -30 30 -12 31 -26 3 -26 -8 0 -11 5 -8 11 4 6 -2 5 -14 -3 -12 -7 -19 -19 -16 -27 4 -11 3 -12 -10 -1 -35 29 -57 -11 -31 -59 l13 -24 11 32 c11 31 12 31 79 31 38 0 74 -5 80 -11 7 -7 19 -9 27 -6 21 8 21 47 0 47 -9 0 -12 5 -8 13 5 8 2 8 -9 -2 -9 -7 -17 -9 -17 -3 0 16 -38 21 -44 6 -3 -8 -1 -14 4 -14 6 0 10 -4 10 -10 0 -5 -19 -10 -42 -9 -24 0 -36 3 -28 6 17 7 50 42 50 53 0 4 9 10 20 13 22 6 28 27 8 27 -7 0 -20 -5 -28 -10z"/>
<path d="M960 1424 c-13 -33 -13 -57 0 -49 6 3 10 1 10 -4 0 -6 -6 -11 -13 -11 -8 0 -19 -11 -25 -25 -7 -15 -8 -25 -2 -25 16 0 11 -19 -10 -40 -11 -11 -29 -20 -40 -20 -11 0 -20 -4 -20 -9 0 -5 -10 -9 -22 -8 -13 0 -43 -2 -68 -6 -43 -5 -46 -4 -75 34 -16 22 -35 45 -40 52 -6 6 -16 24 -22 40 -13 27 -33 37 -33 15 0 -6 14 -35 30 -65 35 -62 36 -68 11 -125 -21 -49 -50 -67 -126 -79 -115 -17 -149 -29 -177 -60 -16 -17 -25 -35 -22 -41 4 -6 2 -8 -3 -5 -6 4 -17 -1 -26 -11 -22 -25 -78 -152 -66 -152 5 0 9 4 9 8 0 17 50 11 60 -7 16 -30 13 -46 -5 -31 -16 14 -20 3 -6 -19 5 -7 14 -11 20 -7 14 9 53 -12 46 -25 -9 -14 -41 -11 -55 6 -6 8 -17 13 -23 12 -7 -1 -12 7 -13 18 -2 48 -4 49 -18 30 -12 -17 -11 -24 12 -56 24 -33 30 -36 61 -31 33 5 34 4 27 -21 -3 -15 -2 -27 3 -27 11 0 8 -131 -4 -150 -5 -9 -4 -15 3 -18 15 -5 15 -24 1 -56 l-12 -25 -20 25 c-16 21 -18 27 -6 35 11 6 11 11 1 21 -9 9 -12 9 -12 -5 0 -21 -1 -21 -51 5 -35 18 -39 23 -23 28 10 4 -6 6 -36 6 -30 0 -73 1 -95 4 -39 5 -39 5 -41 -30 -3 -60 30 -81 47 -30 9 25 16 30 42 30 47 -1 108 -32 145 -74 28 -32 31 -40 21 -59 -7 -12 -13 -24 -15 -26 -2 -2 -20 13 -40 35 -20 21 -26 26 -15 10 11 -15 18 -33 14 -39 -3 -6 -1 -7 5 -3 7 4 12 1 12 -8 0 -8 11 -23 25 -34 30 -24 189 -106 225 -117 14 -4 61 -32 105 -62 101 -70 148 -89 90 -38 -22 19 -53 43 -70 51 -16 9 -50 31 -75 50 -46 33 -111 61 -163 71 -15 3 -32 14 -38 24 -5 11 -20 19 -34 19 -42 0 -32 41 23 101 l49 53 37 -18 c21 -10 43 -15 51 -13 7 3 22 -1 34 -9 33 -24 60 9 71 87 5 35 10 67 10 71 0 4 10 8 23 10 12 2 22 10 22 18 0 10 10 15 28 15 27 -1 35 9 17 20 -6 4 -26 -3 -45 -15 -30 -19 -35 -19 -35 -5 0 9 4 14 9 11 5 -3 7 10 4 30 -3 20 -1 34 4 31 5 -3 7 10 5 29 -2 19 0 34 4 33 22 -4 34 2 34 16 0 13 6 17 26 14 3 0 12 8 19 18 7 10 16 15 20 11 4 -3 20 8 36 25 21 24 28 28 29 15 0 -9 -4 -19 -9 -23 -5 -3 -12 -19 -16 -35 -4 -17 -10 -28 -15 -25 -4 3 -6 -3 -3 -14 3 -10 0 -22 -6 -25 -6 -4 -11 0 -11 9 0 12 -5 15 -17 10 -10 -4 -23 -8 -29 -8 -11 0 -39 -37 -29 -37 3 0 20 7 37 16 16 9 27 11 24 6 -4 -6 -1 -14 5 -18 7 -4 9 -23 5 -56 -6 -45 -5 -50 14 -55 13 -4 17 -9 12 -17 -5 -6 -9 -18 -9 -26 -1 -8 -4 -23 -8 -32 -5 -14 -2 -18 14 -18 12 0 25 -8 29 -18 8 -19 32 -28 32 -12 0 6 -5 10 -11 10 -6 0 -9 6 -6 13 2 6 9 12 15 12 5 0 14 3 18 8 4 4 -14 5 -41 3 -41 -4 -45 -3 -30 8 13 9 15 15 6 20 -8 5 -8 13 -1 27 6 10 7 19 3 19 -4 0 -1 5 7 11 12 9 11 10 -7 6 -21 -5 -23 -2 -23 39 l0 44 48 1 c48 1 48 3 0 13 -39 9 -38 13 18 141 8 17 14 26 14 21 0 -20 49 38 55 64 5 21 23 39 66 66 32 21 59 44 59 51 0 20 -14 16 -40 -11 -12 -14 -35 -28 -51 -31 -29 -7 -59 -50 -59 -87 0 -10 -5 -18 -11 -18 -5 0 -7 5 -4 10 3 6 4 10 1 10 -9 0 -181 -133 -189 -146 -4 -8 -13 -14 -18 -14 -6 0 -7 5 -4 10 9 14 -4 70 -16 70 -4 0 -6 -13 -3 -30 4 -19 2 -30 -5 -30 -6 0 -11 7 -11 15 0 8 -4 15 -10 15 -5 0 -10 -5 -10 -11 0 -15 26 -39 34 -32 3 4 6 1 6 -5 0 -7 -7 -12 -15 -12 -8 0 -15 -5 -15 -11 0 -5 5 -7 10 -4 6 3 10 1 10 -4 0 -16 -26 -13 -40 4 -8 10 -9 15 -2 15 6 0 9 7 6 15 -5 12 -10 10 -25 -9 -24 -31 -24 -35 1 -29 11 3 20 0 20 -6 0 -6 9 -11 21 -11 18 0 20 -4 14 -45 -4 -25 -17 -77 -30 -117 l-22 -73 -52 2 c-28 1 -70 7 -91 13 -39 11 -40 12 -41 58 0 26 -1 68 -2 94 -2 43 0 47 17 42 15 -5 18 -3 13 10 -4 10 -3 15 3 11 6 -3 10 1 10 10 0 13 -6 16 -25 11 -21 -5 -25 -2 -31 29 -6 33 -24 50 -24 23 0 -7 -7 1 -16 17 -14 26 -18 37 -23 64 -1 2 -8 -2 -16 -9 -23 -19 -29 -5 -12 27 8 15 20 40 26 56 6 15 16 27 23 27 8 0 9 -3 3 -8 -12 -8 -13 -88 -2 -99 13 -12 18 5 19 70 1 54 4 68 19 72 9 3 20 12 23 20 5 14 46 40 46 29 0 -3 -15 -20 -32 -37 -22 -20 -26 -28 -14 -23 20 7 20 6 1 -14 -17 -19 -18 -20 -1 -14 11 4 21 1 27 -7 6 -9 9 -1 9 27 0 34 4 43 28 55 15 8 31 20 35 27 5 7 13 10 18 7 5 -4 6 -11 3 -17 -4 -6 -7 -26 -6 -44 1 -20 -4 -34 -14 -38 -8 -3 -12 -10 -9 -16 3 -5 1 -10 -4 -10 -6 0 -11 -5 -11 -11 0 -5 4 -8 9 -5 5 4 7 -3 4 -14 -3 -11 -9 -23 -14 -26 -12 -7 -11 -24 1 -24 6 0 10 6 10 14 0 8 10 22 21 30 14 9 19 21 15 31 -4 10 -2 14 6 9 8 -5 9 0 5 15 -5 21 -3 22 34 16 24 -4 39 -3 39 3 0 13 -55 26 -70 17 -13 -8 -13 8 2 40 11 24 23 29 62 25 12 -1 16 3 11 10 -5 9 -1 10 15 5 15 -5 20 -4 16 4 -4 5 2 19 14 31 l20 20 0 -24 c0 -14 -4 -28 -10 -31 -5 -3 -10 -11 -10 -16 0 -6 6 -7 13 -3 8 5 8 3 -2 -9 -7 -9 -17 -15 -21 -12 -4 3 -19 -4 -31 -16 l-24 -20 23 11 c28 14 39 8 17 -10 -22 -19 -19 -50 5 -50 12 0 20 -6 19 -12 -3 -27 2 -37 16 -32 21 8 19 27 -5 41 -17 11 -18 17 -8 45 12 36 38 71 38 50 0 -7 -4 -12 -9 -12 -5 0 0 -17 10 -37 15 -32 20 -55 28 -135 1 -5 5 -8 10 -8 8 0 -5 82 -28 186 -7 28 -11 80 -9 115 l3 64 43 -44 c48 -50 51 -58 20 -64 -14 -3 -9 -5 15 -6 20 0 37 -5 37 -11 0 -5 4 -10 9 -10 5 0 8 8 6 18 -2 9 -4 24 -4 34 -1 11 -7 15 -19 11 -10 -2 -24 2 -31 10 -10 12 -6 17 20 26 41 14 81 15 59 1 -8 -5 -11 -12 -7 -16 4 -4 1 -14 -6 -23 -19 -24 43 22 96 71 46 44 47 44 47 18 0 -14 -5 -31 -11 -37 -7 -7 -6 -12 6 -17 9 -3 13 -2 10 4 -3 6 -1 10 5 10 17 0 24 -31 11 -51 -13 -22 -3 -26 13 -5 14 18 56 31 56 17 0 -6 -4 -11 -10 -11 -5 0 -10 -9 -10 -20 0 -20 0 -20 19 -1 13 13 28 18 43 15 13 -3 1 6 -25 20 -46 25 -81 52 -83 65 0 3 -4 14 -9 24 -7 18 -3 70 11 116 5 18 4 22 -6 16 -10 -6 -12 0 -8 24 6 38 1 40 -12 5z"/>
<path d="M747 1298 c19 -21 39 -22 73 -3 28 16 25 17 -42 19 -44 1 -46 0 -31 -16z"/>
<path d="M924 1178 c-5 -7 -15 -25 -24 -40 -8 -14 -23 -40 -33 -57 -10 -17 -13 -31 -7 -31 5 0 10 5 10 10 0 6 11 22 25 35 13 14 22 25 19 25 -2 0 3 14 11 31 16 30 15 53 -1 27z"/>
<path d="M1064 1141 c-2 -2 4 -10 14 -18 13 -11 14 -13 2 -12 -8 1 -24 0 -35 -1 -17 -2 -17 -3 4 -9 31 -8 35 -43 8 -71 -12 -14 -16 -25 -9 -33 11 -15 1 -59 -16 -65 -8 -2 -16 5 -19 17 -6 24 -16 27 -32 8 -13 -16 -5 -28 14 -21 7 3 16 0 21 -7 5 -9 2 -10 -9 -6 -8 3 -21 -1 -27 -9 -18 -20 -32 -17 -25 5 5 16 2 18 -15 14 -26 -7 -25 -21 1 -44 25 -22 17 -44 -11 -29 -27 14 -34 12 -19 -6 10 -12 24 -14 68 -8 31 3 62 7 69 7 7 0 10 7 7 14 -3 8 -5 20 -5 26 0 7 -7 3 -16 -8 -18 -24 -51 -28 -59 -7 -7 18 -4 21 21 25 10 1 25 6 32 10 6 5 12 5 12 0 1 -22 30 61 45 130 14 67 20 77 38 77 16 0 18 3 8 9 -11 7 -11 9 0 13 8 3 -3 4 -24 4 -21 -1 -40 -3 -43 -5z"/>
<path d="M1164 1124 c23 -16 42 -18 51 -4 3 6 -2 10 -12 11 -10 0 -27 2 -38 4 -20 4 -20 4 -1 -11z"/>
<path d="M1243 1124 c7 -13 -56 -29 -72 -20 -5 3 -12 -1 -15 -10 -3 -8 -9 -13 -13 -11 -14 9 -32 -19 -22 -34 7 -12 9 -12 9 1 0 11 2 12 8 3 5 -8 13 -9 22 -3 10 7 11 10 3 10 -7 0 -13 4 -13 8 0 13 89 31 96 20 4 -6 10 -5 15 3 7 11 9 11 9 1 0 -7 9 -11 23 -9 12 2 17 2 10 0 -6 -2 -14 -11 -17 -20 -5 -11 -2 -13 11 -8 41 17 50 16 50 -2 0 -10 -5 -21 -10 -25 -6 -4 -4 -12 6 -22 21 -21 30 -20 22 3 -3 11 -1 22 5 26 5 3 10 10 10 15 0 15 -51 44 -76 45 -13 1 -33 10 -46 21 -12 10 -18 14 -15 8z"/>
<path d="M715 1070 c16 -16 33 -30 39 -30 5 0 -3 14 -19 30 -16 17 -33 30 -39 30 -5 0 3 -13 19 -30z"/>
<path d="M1024 1060 c-2 -32 10 -40 20 -15 6 16 -2 45 -13 45 -3 0 -7 -13 -7 -30z"/>
<path d="M1200 1061 c0 -11 -6 -22 -12 -24 -7 -3 -3 -6 10 -6 24 -1 55 -24 45 -34 -3 -3 8 -4 25 -2 36 5 63 -18 44 -37 -7 -7 -12 -17 -12 -22 0 -6 9 0 19 14 19 24 19 24 -1 42 -12 10 -32 18 -45 18 -21 0 -28 10 -24 33 1 5 -9 5 -21 1 -20 -6 -21 -5 -10 8 10 13 10 17 -3 22 -10 3 -15 -1 -15 -13z"/>
<path d="M1099 1027 c-8 -21 -5 -35 7 -30 17 6 19 -13 2 -21 -7 -3 -1 -4 14 -1 15 3 28 0 30 -7 5 -13 28 -2 28 13 0 6 -4 7 -10 4 -5 -3 -10 -3 -10 2 0 7 -59 46 -61 40z"/>
<path d="M1370 1021 c0 -6 5 -13 11 -16 6 -4 8 -13 5 -20 -3 -8 3 -16 13 -20 9 -3 22 -17 29 -33 l12 -27 -6 30 c-9 51 -64 124 -64 86z"/>
<path d="M1273 974 c-7 -3 -9 -12 -6 -20 3 -8 1 -22 -3 -31 -5 -10 -8 -31 -9 -47 0 -18 -8 -34 -22 -43 -25 -16 -32 -2 -10 18 13 13 11 109 -4 109 -4 0 -13 -9 -19 -19 -8 -15 -7 -22 6 -29 11 -6 13 -16 9 -35 -6 -22 -12 -26 -31 -23 -20 4 -27 -3 -48 -50 -14 -30 -23 -61 -20 -69 3 -7 -3 -34 -14 -58 l-20 -45 -86 0 c-47 0 -90 -3 -96 -7 -5 -3 -10 -2 -10 3 0 5 -11 7 -25 4 -14 -2 -22 -8 -20 -13 3 -4 49 -6 103 -2 l97 5 -20 -22 -20 -23 22 12 c12 6 25 16 28 21 3 6 10 10 15 10 5 0 0 -27 -12 -60 -20 -54 -23 -58 -38 -45 -19 17 -30 19 -30 6 0 -5 9 -11 21 -14 13 -4 19 -12 17 -24 -3 -16 -14 -18 -98 -17 -185 3 -219 6 -213 21 7 18 -47 17 -73 -2 -17 -13 -16 -13 13 -3 39 14 47 9 34 -24 -5 -14 -6 -30 -2 -37 6 -10 10 -8 15 4 3 9 3 22 -1 28 -4 7 0 8 13 2 10 -4 40 -9 65 -10 25 -1 50 -5 57 -8 6 -4 13 -3 17 3 10 16 28 11 21 -6 -4 -9 -2 -22 4 -29 13 -16 -24 -60 -44 -52 -8 3 -17 1 -20 -6 -3 -8 -5 -8 -5 1 -1 17 24 43 33 35 3 -4 6 -1 6 5 0 15 0 15 -38 1 -20 -7 -29 -15 -25 -25 3 -8 0 -14 -6 -14 -11 0 -15 13 -12 38 1 6 -3 12 -10 12 -7 0 -9 -9 -6 -21 4 -15 1 -19 -11 -17 -10 2 -17 13 -16 24 0 19 -2 20 -25 8 -22 -12 -28 -11 -46 6 -18 16 -22 17 -39 4 -18 -13 -15 -19 8 -15 4 1 14 -3 22 -9 7 -7 23 -9 34 -5 14 4 26 1 33 -8 11 -14 60 -27 150 -42 31 -5 37 -3 37 12 0 28 22 99 27 86 2 -7 11 -9 19 -6 7 3 12 8 9 12 -2 4 6 7 18 6 35 -3 30 -27 -14 -70 -40 -38 -41 -40 -18 -43 13 -2 25 1 27 7 7 20 84 111 103 122 32 17 55 -4 63 -57 3 -25 3 -50 0 -55 -7 -12 -44 -11 -44 1 0 6 -7 10 -15 10 -8 0 -15 -4 -15 -10 0 -5 -8 -10 -17 -10 -9 0 -14 -2 -12 -5 3 -2 44 -7 92 -9 74 -4 93 -2 134 16 30 14 42 23 31 26 -9 2 -36 -6 -60 -17 -24 -11 -47 -16 -51 -12 -15 15 -30 142 -19 166 13 28 100 56 152 49 19 -3 47 -5 63 -6 15 0 27 -5 27 -10 0 -5 4 -7 9 -3 6 3 15 -4 21 -15 6 -11 15 -18 19 -15 11 6 21 -19 21 -55 0 -29 -25 -64 -40 -55 -5 3 -7 -7 -5 -22 4 -37 -37 -226 -61 -283 -19 -44 -21 -80 -4 -80 26 0 100 262 100 356 0 12 16 38 35 57 86 86 14 167 -147 167 -63 0 -86 4 -102 18 -20 16 -20 16 -7 0 12 -16 11 -18 -13 -18 -50 0 -126 -49 -126 -80 0 -17 -28 -36 -37 -26 -3 2 2 17 10 33 8 15 18 50 22 78 8 57 31 119 57 155 16 22 25 52 27 88 1 6 6 12 12 12 6 0 8 -7 5 -16 -3 -8 -2 -12 4 -9 6 3 10 0 10 -7 0 -9 3 -9 10 2 8 12 10 12 10 1 0 -11 3 -11 15 -1 8 7 13 16 10 20 -3 4 2 11 10 14 8 3 14 9 13 13 -1 4 3 18 10 31 11 18 10 22 -2 22 -15 0 -11 34 7 58 10 12 2 14 -20 6z"/>
<path d="M381 936 c-9 -11 -9 -19 1 -35 14 -22 28 -28 28 -11 0 6 -5 10 -11 10 -7 0 -9 10 -7 25 6 29 5 30 -11 11z"/>
<path d="M1087 933 c3 -7 1 -13 -5 -13 -13 0 -22 -35 -12 -50 4 -7 10 1 13 20 5 22 12 30 24 28 9 -2 19 4 20 12 2 10 -4 15 -20 15 -16 0 -23 -5 -20 -12z"/>
<path d="M580 909 c0 -19 4 -28 11 -24 6 4 8 14 5 22 -5 11 -2 13 10 9 14 -5 15 -4 4 9 -19 23 -30 18 -30 -16z"/>
<path d="M1161 917 c-6 -8 -8 -22 -5 -31 6 -15 8 -14 21 4 18 26 3 50 -16 27z"/>
<path d="M1387 908 c-9 -5 -17 -20 -17 -34 0 -14 -5 -35 -11 -46 -8 -14 -8 -23 0 -31 8 -8 11 -3 11 17 0 18 4 26 13 23 6 -2 11 -9 10 -15 -1 -5 5 -16 13 -23 12 -10 20 -10 35 0 18 11 19 10 10 -8 -15 -27 -31 -35 -44 -22 -6 6 -25 10 -41 10 l-31 -2 30 -6 c55 -11 93 -41 103 -83 8 -32 7 -40 -7 -48 -12 -8 -8 -9 14 -3 27 6 29 5 16 -10 -8 -10 -9 -17 -3 -17 6 0 13 4 16 8 5 8 -18 84 -32 106 -3 6 -5 27 -3 47 1 20 -2 40 -7 43 -5 3 -7 17 -4 31 2 15 0 25 -7 25 -7 0 -10 3 -8 8 9 14 -38 41 -56 30z m42 -39 c19 -15 21 -23 12 -32 -16 -16 -45 3 -49 32 -4 26 6 26 37 0z"/>
<path d="M420 881 c0 -6 -8 -11 -18 -11 -9 0 -23 -9 -29 -19 -18 -29 17 -33 51 -6 24 19 25 23 12 35 -11 8 -16 9 -16 1z"/>
<path d="M460 870 c0 -17 42 -28 56 -16 9 8 8 13 -5 18 -25 10 -51 9 -51 -2z"/>
<path d="M1321 838 c-1 -11 -9 -18 -21 -18 -11 0 -23 -7 -26 -15 -4 -8 -14 -15 -23 -15 -21 0 -71 -22 -71 -32 0 -4 15 -2 33 3 17 6 37 11 42 12 6 2 15 6 22 10 6 4 13 3 15 -2 1 -6 13 -2 26 7 19 15 21 22 13 42 -7 18 -10 20 -10 8z"/>
<path d="M425 829 c-11 -4 -15 -8 -9 -8 6 -1 16 -12 22 -26 11 -23 10 -24 -12 -15 -13 5 -29 4 -37 -1 -8 -5 -11 -9 -8 -9 3 0 31 -5 62 -11 65 -12 77 -8 69 23 -5 21 -5 21 -15 -3 -8 -20 -11 -21 -14 -6 -3 9 -11 17 -19 17 -8 0 -13 3 -11 8 3 4 2 14 -2 23 -4 12 -12 14 -26 8z"/>
<path d="M1056 819 c19 -21 19 -21 -1 -19 -35 4 -56 0 -51 -8 3 -5 19 -7 36 -4 18 2 30 0 30 -7 0 -6 -4 -11 -8 -11 -13 0 -48 -29 -35 -30 6 0 25 12 42 26 l32 26 -26 24 c-32 30 -45 32 -19 3z"/>
<path d="M195 783 c-9 -20 -13 -43 -11 -50 3 -8 -2 -13 -13 -13 -18 0 -101 -83 -101 -101 0 -6 8 -18 17 -27 16 -16 16 -16 10 1 -4 12 -1 17 9 17 11 0 14 6 10 16 -9 22 11 54 34 54 11 0 19 6 18 13 -2 6 2 11 7 10 6 0 16 5 23 13 7 8 9 14 3 14 -5 0 -7 9 -4 20 3 11 9 18 13 15 4 -2 7 9 6 25 -1 17 -2 30 -3 30 -2 0 -10 -17 -18 -37z"/>
<path d="M810 793 c1 -13 46 -42 61 -39 31 6 69 26 69 36 0 15 -31 12 -51 -5 -15 -14 -18 -14 -32 0 -16 15 -47 21 -47 8z"/>
<path d="M974 785 c-6 -16 12 -45 28 -45 5 0 3 10 -4 23 -7 12 -11 25 -10 30 4 14 -9 7 -14 -8z"/>
<path d="M236 724 c-20 -20 -20 -25 0 -17 13 5 15 2 9 -17 -5 -15 -4 -20 3 -16 9 5 14 66 6 66 -1 0 -10 -7 -18 -16z"/>
<path d="M425 722 c-7 -19 -5 -21 31 -26 16 -3 45 -7 65 -10 28 -5 38 -2 43 10 9 24 0 29 -21 13 -13 -11 -15 -11 -9 -1 7 11 4 11 -13 0 -17 -10 -23 -10 -33 1 -7 8 -8 11 -3 8 6 -3 17 -2 25 4 12 7 9 9 -10 10 -14 0 -35 2 -47 3 -12 1 -25 -4 -28 -12z"/>
<path d="M1413 715 c12 -24 37 -42 37 -26 0 9 -35 51 -43 51 -3 0 0 -11 6 -25z"/>
<path d="M996 702 c-3 -6 -15 -8 -25 -5 -13 3 -21 -1 -24 -14 -4 -16 -5 -16 -6 0 0 9 -5 17 -10 17 -5 0 -12 -8 -14 -17 -4 -17 -5 -17 -6 0 -1 13 -8 17 -23 15 -13 -2 -26 -7 -30 -13 -5 -6 -8 -5 -8 3 0 18 -18 15 -23 -5 -4 -17 -5 -17 -6 0 -1 17 -12 22 -24 10 -4 -3 -1 -13 6 -21 10 -13 9 -14 -2 -7 -10 5 -12 4 -7 -4 8 -13 37 -11 49 4 6 7 10 6 13 -1 6 -14 92 -8 110 7 8 6 14 4 18 -7 5 -12 9 -14 20 -5 7 6 16 8 19 4 4 -3 7 0 7 8 0 11 2 11 10 -1 8 -12 10 -11 10 7 0 15 -5 20 -17 19 -10 -2 -21 1 -24 6 -4 7 -9 6 -13 0z"/>
<path d="M1209 696 c9 -11 8 -15 -5 -20 -10 -4 -21 -1 -26 6 -7 13 -9 11 -12 -14 -1 -7 -8 -12 -15 -10 -7 1 -10 -2 -6 -8 4 -6 1 -18 -7 -27 -12 -15 -11 -15 10 -2 12 8 22 17 22 20 0 4 14 12 30 19 17 7 30 14 30 15 0 13 -14 35 -22 35 -7 0 -6 -5 1 -14z"/>
<path d="M1060 675 c0 -22 19 -38 21 -17 0 4 2 15 4 25 2 9 -3 17 -11 17 -8 0 -14 -10 -14 -25z"/>
<path d="M415 670 c3 -5 15 -10 26 -10 16 0 19 -4 14 -21 -6 -17 -3 -20 12 -17 10 2 17 10 16 16 -2 7 3 12 10 12 21 1 -17 19 -52 25 -21 4 -30 2 -26 -5z"/>
<path d="M193 663 c-9 -3 -10 -10 -3 -22 6 -13 4 -24 -6 -39 -8 -12 -11 -22 -5 -22 5 0 14 6 18 14 14 24 53 1 54 -31 l0 -28 12 23 c9 20 8 26 -6 34 -10 5 -15 13 -12 19 4 5 1 9 -5 9 -7 0 -9 7 -5 18 5 14 4 15 -6 5 -21 -21 -33 -15 -14 7 18 20 8 26 -22 13z"/>
<path d="M670 604 c14 -16 57 -16 53 1 -2 5 -17 11 -34 12 -27 3 -30 1 -19 -13z"/>
<path d="M484 585 c-4 -11 -12 -24 -18 -28 -7 -6 -4 -7 6 -3 10 3 24 -2 33 -10 19 -19 19 -15 1 27 -13 30 -15 32 -22 14z"/>
<path d="M627 584 c-3 -3 -3 -12 0 -20 3 -9 21 -13 54 -12 60 1 74 14 16 15 -23 0 -43 6 -45 12 -4 12 -15 14 -25 5z"/>
<path d="M76 423 c-30 -104 -48 -214 -44 -275 6 -82 18 -98 72 -98 35 0 122 -14 216 -36 24 -5 24 -5 6 15 -13 15 -15 21 -6 21 7 0 10 3 7 6 -4 4 -12 2 -20 -4 -8 -7 -18 -7 -27 -2 -8 6 -25 10 -37 10 -13 0 -23 4 -23 8 0 5 -6 9 -12 9 -34 0 -134 27 -140 36 -4 6 -2 17 4 24 8 10 6 13 -5 13 -21 0 -32 19 -18 33 6 6 11 35 11 63 0 29 4 55 10 59 5 3 7 12 4 20 -4 8 0 17 8 20 8 3 14 22 15 45 2 41 -12 63 -21 33z"/>
<path d="M802 218 c-7 -7 -12 -28 -12 -47 -1 -34 -2 -35 -15 -17 -8 11 -15 15 -15 9 0 -6 7 -16 15 -23 8 -7 12 -16 9 -21 -9 -15 13 -10 26 6 7 9 20 13 29 10 9 -3 5 3 -8 13 -18 15 -23 26 -19 51 2 17 4 31 3 31 0 0 -6 -5 -13 -12z"/>
<path d="M1254 184 c3 -8 6 -18 6 -20 0 -8 49 -4 54 5 6 9 -15 21 -48 28 -13 2 -17 -1 -12 -13z"/>
<path d="M605 36 c-103 -18 -124 -24 -102 -30 17 -5 32 -4 42 4 8 6 27 10 42 9 15 -2 34 0 41 4 8 6 12 2 12 -10 1 -17 1 -17 11 -1 7 13 15 15 32 9 15 -6 29 -4 42 5 24 18 45 18 45 0 0 -9 8 -12 25 -8 15 2 25 0 25 -7 0 -6 17 -11 43 -10 35 1 38 2 17 8 -14 5 -44 18 -67 29 -49 26 -42 26 -208 -2z"/>
</g>
</svg>